<?xml version="1.0" encoding="utf-8"?>
<svg viewBox="22.339 0 468.146 500" xmlns="http://www.w3.org/2000/svg">
  <defs>
    <clipPath id="clippath40" transform="">
      <path d="M 18 252.753 L 577.276 252.753 L 577.276 567.139 L 18 567.139 Z" style="fill: none; clip-rule: nonzero;"/>
    </clipPath>
  </defs>
  <g transform="matrix(1, 0, 0, -1, -152.882781, 688.777138)">
    <g style="clip-path: url(#clippath40);" transform="matrix(3.787972, 0, 0, 3.787972, -479.881531, -1102.484009)">
      <g transform="">
        <path d="M 232.906 468.273 C 233.359 465.86 233.78 462.171 233.179 457.77 C 232.569 453.31 231.18 450.117 229.763 446.916 C 228.547 444.167 227.107 441.474 223.096 435.374 C 219.327 429.64 216.525 425.822 214.723 423.302 C 207.914 413.783 204.581 408.864 202.69 404.871 C 199.224 397.551 198.079 391.672 197.79 390.084 C 196.991 385.707 196.159 381.149 197.169 375.282 C 198.799 365.812 204.086 359.564 206.466 357.082 C 209.515 353.9 212.595 351.889 214.733 350.691 C 213.62 352.19 212.297 354.393 211.498 357.281 C 210.45 361.072 210.818 364.178 211.019 365.748 C 211.261 367.632 211.708 369.309 212.537 371.58 C 214.498 376.952 216.882 380.953 218.488 383.561 C 220.48 386.798 222.912 390.549 227.394 396.901 C 232.855 404.639 233.231 404.719 236.181 409.243 C 239.196 413.865 241.413 417.301 243.57 422.383 C 245.041 425.848 246.464 429.274 247.005 434.125 C 247.215 436.008 247.44 439.429 246.765 443.63 C 246.04 448.14 244.609 451.496 243.809 453.176 C 243.399 454.038 242.776 455.255 241.573 457.17 C 239.833 459.939 237.085 463.841 232.906 468.273" style="fill-opacity: 1; fill: rgb(255, 255, 255);"/>
        <path d="M 255.883 427.628 C 255.093 422.227 253.592 418.172 252.349 415.452 C 251.318 413.197 250.181 411.237 248.415 408.197 C 247.924 407.351 246.373 404.699 243.923 400.936 C 241.581 397.34 239.738 394.757 237.638 391.821 C 234.705 387.719 233.47 386.156 229.973 381.186 C 228.089 378.508 226.804 376.628 225.434 373.9 C 224.752 372.544 223.846 370.72 223.051 368.181 C 222.209 365.49 221.25 362.428 221.696 358.522 C 221.847 357.192 222.111 355.07 223.447 352.704 C 224.034 351.663 225.244 349.842 227.4 348.299 C 229.492 346.803 231.443 346.306 232.766 345.983 C 233.537 345.795 235.535 345.361 238.923 345.532 C 240.098 345.591 244.617 345.883 250.163 348.073 C 252.431 348.969 255.584 350.462 258.918 352.93 C 260.257 353.921 262.581 355.665 265.018 358.578 C 266.414 360.248 268.209 362.733 269.706 366.034 C 271.81 370.672 272.278 374.604 272.531 376.88 C 272.805 379.362 272.951 382.829 272.361 386.933 C 271.875 385.122 271.25 383.168 270.44 381.116 C 269.123 377.777 267.808 375.54 265.187 371.061 C 265.187 371.061 264.224 369.414 262.256 366.796 C 261.934 366.368 261.513 365.825 260.867 365.234 C 260.459 364.859 260.088 364.586 259.348 364.04 C 258.723 363.579 258.539 363.477 258.378 363.4 C 257.848 363.144 257.404 363.073 256.899 362.994 C 255.992 362.854 255.472 362.774 254.78 362.929 C 254.002 363.104 253.424 363.482 253.068 363.777 C 252.922 363.899 252.292 364.438 251.881 365.389 C 251.578 366.089 251.539 366.678 251.508 367.136 C 251.481 367.534 251.47 368.255 251.677 369.105 C 251.965 370.283 252.522 371.087 252.78 371.463 C 253.746 372.871 254.513 374.414 255.546 375.773 C 258.473 379.623 261.206 385.13 261.983 386.694 C 263.527 389.807 264.712 392.195 265.578 395.748 C 266.719 400.427 266.438 403.567 266.349 404.417 C 266.178 406.029 265.832 407.582 265.193 409.489 C 262.795 416.645 257.522 425.065 255.883 427.628" style="fill: rgb(255, 145, 54); fill-opacity: 1;"/>
      </g>
    </g>
  </g>
</svg>